<svg width="212" height="175" viewBox="0 0 212 175" fill="none" xmlns="http://www.w3.org/2000/svg">
<rect x="6" width="200" height="175" rx="31" fill="#116267"/>
<g filter="url(#filter0_d_2_9)">
<rect x="20" y="63" width="172" height="49" rx="14" fill="#00F7F7"/>
</g>
<path d="M61.75 56.25L61.5 53.1L68.5 51.95L65.5 54.75C65.6 54.2167 65.7 53.5333 65.8 52.7C65.9333 51.8333 66.05 51 66.15 50.2C66.25 49.3667 66.3 48.7333 66.3 48.3V28.45C66.3 27.9833 66.25 27.4 66.15 26.7C66.0833 25.9667 65.9833 25.2333 65.85 24.5C65.75 23.7333 65.6333 23.1 65.5 22.6L73.65 22.5C73.5833 23.1333 73.4833 23.85 73.35 24.65C73.25 25.4167 73.15 26.2667 73.05 27.2C72.9833 28.1 72.95 29.0167 72.95 29.95V46.8C72.95 47.6667 72.9833 48.6333 73.05 49.7C73.15 50.7333 73.25 51.7167 73.35 52.65C73.4833 53.55 73.5833 54.25 73.65 54.75L70.65 52.2L77.85 52.75L77.6 56H69.8C69.4 56 68.7333 56.0167 67.8 56.05C66.8667 56.0833 65.85 56.1167 64.75 56.15C63.65 56.1833 62.65 56.2167 61.75 56.25ZM57.95 30.4L54.65 30.15L55 21.4L56 20.5C56.6333 20.5333 57.3333 20.5667 58.1 20.6C58.8667 20.6333 59.5833 20.6667 60.25 20.7C60.9167 20.7333 61.4 20.75 61.7 20.75H77.45C77.75 20.75 78.25 20.7333 78.95 20.7C79.6833 20.6667 80.45 20.6333 81.25 20.6C82.0833 20.5667 82.7333 20.5333 83.2 20.5L84.15 21.4L84.55 30.15L81.25 30.4C81.2167 30.0333 81.1667 29.6 81.1 29.1C81.0333 28.5667 80.9667 28.05 80.9 27.55C80.8333 27.05 80.7833 26.6833 80.75 26.45L79.05 22.1L82.05 24.7C81.55 24.6333 80.7333 24.5667 79.6 24.5C78.5 24.4333 77.35 24.4 76.15 24.4H63.2C62.4333 24.4 61.6333 24.4333 60.8 24.5C59.9667 24.5333 59.2333 24.5667 58.6 24.6C57.9667 24.6333 57.55 24.6667 57.35 24.7L60 22.05L58.6 26.45C58.5 26.85 58.3833 27.4833 58.25 28.35C58.1167 29.2167 58.0167 29.9 57.95 30.4ZM107.854 56.75C104.254 56.75 101.154 55.9833 98.5539 54.45C95.9872 52.9167 94.0039 50.7833 92.6039 48.05C91.2039 45.2833 90.5039 42.0667 90.5039 38.4C90.5039 34.7 91.2039 31.4833 92.6039 28.75C94.0039 25.9833 95.9872 23.8333 98.5539 22.3C101.154 20.7667 104.254 20 107.854 20C111.454 20 114.554 20.7667 117.154 22.3C119.754 23.8333 121.737 25.9833 123.104 28.75C124.504 31.4833 125.204 34.7 125.204 38.4C125.204 42.0667 124.504 45.2833 123.104 48.05C121.737 50.7833 119.754 52.9167 117.154 54.45C114.554 55.9833 111.454 56.75 107.854 56.75ZM107.854 52.65C110.054 52.65 111.854 52.0833 113.254 50.95C114.654 49.8167 115.704 48.2 116.404 46.1C117.104 43.9667 117.454 41.4 117.454 38.4C117.454 35.3667 117.104 32.8 116.404 30.7C115.704 28.5667 114.654 26.9333 113.254 25.8C111.854 24.6667 110.054 24.1 107.854 24.1C105.721 24.1 103.937 24.6667 102.504 25.8C101.071 26.9333 100.004 28.5667 99.3039 30.7C98.6039 32.8 98.2539 35.3667 98.2539 38.4C98.2539 41.4 98.6039 43.9667 99.3039 46.1C100.004 48.2 101.071 49.8167 102.504 50.95C103.937 52.0833 105.721 52.65 107.854 52.65ZM131.464 56.25L131.214 53.1L137.414 51.95L134.414 54.75C134.514 54.2167 134.614 53.55 134.714 52.75C134.814 51.9167 134.914 51.0833 135.014 50.25C135.114 49.4167 135.164 48.7667 135.164 48.3V28.45C135.164 27.9833 135.114 27.4 135.014 26.7C134.947 26 134.847 25.2833 134.714 24.55C134.614 23.7833 134.514 23.1333 134.414 22.6L137.414 24.95L131.264 23.9L131.514 20.5C132.114 20.5333 132.797 20.5667 133.564 20.6C134.33 20.6333 135.064 20.6667 135.764 20.7C136.464 20.7333 137.03 20.75 137.464 20.75L142.364 22.5C142.297 23.1333 142.214 23.8667 142.114 24.7C142.047 25.5333 141.98 26.4 141.914 27.3C141.847 28.2 141.814 29.0833 141.814 29.95V46.8C141.814 47.7 141.847 48.6833 141.914 49.75C142.014 50.8167 142.13 51.8 142.264 52.7C142.397 53.6 142.497 54.2833 142.564 54.75L139.614 52.2L146.464 52.75L146.164 56H138.714C138.247 56 137.597 56.0167 136.764 56.05C135.93 56.0833 135.047 56.1167 134.114 56.15C133.18 56.1833 132.297 56.2167 131.464 56.25ZM145.214 42.1C144.314 42.1 143.264 42.1 142.064 42.1C140.864 42.1 139.23 42.0833 137.164 42.05V38.35C138.23 38.3833 139.297 38.4333 140.364 38.5C141.464 38.5333 142.53 38.55 143.564 38.55C145.964 38.55 147.864 37.9167 149.264 36.65C150.697 35.3833 151.414 33.5333 151.414 31.1C151.414 28.7333 150.797 26.9667 149.564 25.8C148.33 24.6333 146.514 24.05 144.114 24.05C143.614 24.05 142.93 24.0833 142.064 24.15C141.23 24.1833 140.38 24.2333 139.514 24.3C138.68 24.3667 137.997 24.4333 137.464 24.5V20.75C138.83 20.75 140.364 20.7167 142.064 20.65C143.797 20.55 145.347 20.5 146.714 20.5C150.18 20.5 152.98 21.4167 155.114 23.25C157.247 25.0833 158.314 27.7 158.314 31.1C158.314 33.4 157.697 35.3833 156.464 37.05C155.23 38.6833 153.614 39.9333 151.614 40.8C149.647 41.6667 147.514 42.1 145.214 42.1Z" fill="#6FCBFF"/>
<path d="M36.496 157L28.048 130.744C27.888 130.264 27.712 129.8 27.52 129.352C27.328 128.872 27.072 128.28 26.752 127.576C26.464 126.872 26.032 125.96 25.456 124.84L28.912 127.336L24.064 126.184L24.304 122.92C24.88 122.952 25.488 122.984 26.128 123.016C26.8 123.048 27.456 123.08 28.096 123.112C28.736 123.144 29.248 123.16 29.632 123.16C30.368 123.16 31.216 123.144 32.176 123.112C33.168 123.08 34.128 123.048 35.056 123.016C36.016 122.984 36.848 122.952 37.552 122.92L37.792 126.424L31.552 127L33.808 124.984C33.872 125.464 33.968 126.136 34.096 127C34.224 127.832 34.384 128.712 34.576 129.64C34.8 130.568 35.008 131.384 35.2 132.088L40.096 150.52H38.752L46.24 124.408H50.656L58.288 150.52H56.896L62.416 130.36C62.512 129.944 62.64 129.384 62.8 128.68C62.96 127.944 63.088 127.224 63.184 126.52C63.28 125.816 63.312 125.272 63.28 124.888L65.632 127.192L59.776 126.184L60.016 122.92C60.784 122.952 61.648 123 62.608 123.064C63.6 123.128 64.384 123.16 64.96 123.16C65.568 123.16 66.272 123.144 67.072 123.112C67.904 123.08 68.72 123.048 69.52 123.016C70.32 122.984 71.008 122.952 71.584 122.92L71.776 126.424L66.88 126.952L70.576 125.032C70.256 125.448 69.872 126.072 69.424 126.904C68.976 127.704 68.528 128.552 68.08 129.448C67.664 130.344 67.344 131.16 67.12 131.896L59.296 157H54.64L47.104 132.856H48.592L41.152 157H36.496ZM76.3398 157.24L76.0998 154.216L82.1478 153.112L79.1238 155.56C79.2198 155.176 79.3318 154.728 79.4598 154.216C79.5878 153.672 79.7158 153.112 79.8438 152.536C79.9718 151.96 80.0678 151.416 80.1318 150.904C80.2278 150.392 80.2918 149.96 80.3238 149.608L81.5238 130.504C81.5558 130.056 81.5398 129.496 81.4758 128.824C81.4438 128.12 81.3958 127.448 81.3318 126.808C81.2678 126.168 81.2198 125.688 81.1878 125.368L83.7798 127.144L77.8758 126.184L78.1158 122.92C78.6918 122.952 79.3318 122.984 80.0358 123.016C80.7718 123.048 81.4758 123.08 82.1478 123.112C82.8198 123.144 83.3638 123.16 83.7798 123.16H89.0598L90.0198 124.12C90.2758 124.92 90.5478 125.832 90.8358 126.856C91.1238 127.848 91.3958 128.776 91.6518 129.64C91.9078 130.472 92.0998 131.064 92.2278 131.416L98.5157 149.608H96.8358L103.46 130.84C103.556 130.552 103.716 130.04 103.94 129.304C104.196 128.536 104.484 127.688 104.804 126.76C105.124 125.8 105.396 124.92 105.62 124.12L106.58 123.16H110.036C111.06 123.16 112.212 123.128 113.492 123.064C114.804 123 115.908 122.952 116.804 122.92L116.996 126.424L111.092 127L113.684 125.56C113.652 126.328 113.604 127.304 113.54 128.488C113.508 129.672 113.54 130.84 113.636 131.992L114.836 148.168C114.9 148.648 114.98 149.256 115.076 149.992C115.204 150.696 115.332 151.416 115.46 152.152C115.588 152.888 115.716 153.576 115.844 154.216C115.972 154.824 116.068 155.272 116.132 155.56L113.156 153.352L119.204 153.88L118.916 157H112.34C111.924 157 111.332 157.016 110.564 157.048C109.796 157.08 108.98 157.112 108.116 157.144C107.252 157.176 106.452 157.208 105.716 157.24L105.476 154.216L111.332 153.112L108.548 155.56C108.612 155.176 108.676 154.616 108.74 153.88C108.836 153.112 108.916 152.328 108.98 151.528C109.044 150.696 109.06 150.056 109.028 149.608L107.924 128.44L108.932 128.632L98.6118 157H95.1558L85.0278 128.584L86.0358 128.44L84.9318 148.168C84.8998 148.68 84.8838 149.288 84.8838 149.992C84.9158 150.664 84.9478 151.368 84.9798 152.104C85.0118 152.808 85.0598 153.48 85.1238 154.12C85.1878 154.728 85.2358 155.208 85.2678 155.56L82.5318 153.352L88.6278 153.88L88.2918 157H82.0998C81.8118 157 81.3318 157.016 80.6598 157.048C79.9878 157.08 79.2518 157.112 78.4518 157.144C77.6838 157.176 76.9798 157.208 76.3398 157.24ZM124.348 157.24L124.108 154.216L130.06 153.112L127.18 155.56C127.276 154.952 127.372 154.264 127.468 153.496C127.596 152.728 127.692 151.992 127.756 151.288C127.852 150.552 127.9 149.992 127.9 149.608V130.552C127.9 130.104 127.852 129.496 127.756 128.728C127.692 127.928 127.596 127.144 127.468 126.376C127.372 125.608 127.292 125 127.228 124.552L130.06 127.192L124.156 126.184L124.396 122.92C124.972 122.952 125.612 122.984 126.316 123.016C127.052 123.048 127.756 123.08 128.428 123.112C129.132 123.144 129.692 123.16 130.108 123.16C130.972 123.16 131.916 123.144 132.94 123.112C133.964 123.048 134.972 123 135.964 122.968C136.988 122.936 137.948 122.92 138.844 122.92C142.524 122.92 145.596 123.656 148.06 125.128C150.556 126.568 152.444 128.584 153.724 131.176C155.004 133.736 155.644 136.712 155.644 140.104C155.644 143.464 155.004 146.44 153.724 149.032C152.444 151.592 150.54 153.608 148.012 155.08C145.516 156.52 142.46 157.24 138.844 157.24C137.66 157.24 136.412 157.192 135.1 157.096C133.788 157.032 132.524 157 131.308 157C130.86 157 130.236 157.016 129.436 157.048C128.636 157.08 127.772 157.112 126.844 157.144C125.948 157.176 125.116 157.208 124.348 157.24ZM134.716 155.32L133.18 153.496C133.788 153.496 134.556 153.528 135.484 153.592C136.444 153.624 137.42 153.64 138.412 153.64C140.876 153.64 142.86 153.032 144.364 151.816C145.9 150.6 147.02 148.968 147.724 146.92C148.428 144.84 148.78 142.536 148.78 140.008C148.78 137.576 148.428 135.336 147.724 133.288C147.02 131.24 145.9 129.608 144.364 128.392C142.86 127.144 140.892 126.52 138.46 126.52C137.564 126.52 136.604 126.536 135.58 126.568C134.556 126.6 133.804 126.616 133.324 126.616L134.716 124.744C134.716 124.872 134.684 125.208 134.62 125.752C134.588 126.264 134.54 126.888 134.476 127.624C134.412 128.36 134.364 129.128 134.332 129.928C134.3 130.728 134.284 131.416 134.284 131.992V148.168C134.284 148.936 134.316 149.832 134.38 150.856C134.444 151.848 134.508 152.776 134.572 153.64C134.668 154.472 134.716 155.032 134.716 155.32ZM161.566 157.24L161.326 154.216L167.278 153.112L164.494 155.32C164.558 154.904 164.638 154.328 164.734 153.592C164.83 152.856 164.91 152.104 164.974 151.336C165.07 150.568 165.118 149.992 165.118 149.608V130.552C165.118 130.168 165.086 129.688 165.022 129.112C164.99 128.504 164.926 127.896 164.83 127.288C164.734 126.648 164.654 126.104 164.59 125.656C164.526 125.208 164.494 124.968 164.494 124.936L167.086 127.144L161.374 126.184L161.614 122.92C162.19 122.952 162.846 122.984 163.582 123.016C164.318 123.048 165.022 123.08 165.694 123.112C166.366 123.144 166.91 123.16 167.326 123.16C168.126 123.16 169.022 123.144 170.014 123.112C171.038 123.048 172.062 123 173.086 122.968C174.11 122.936 175.022 122.92 175.822 122.92C177.646 122.92 179.326 123.24 180.862 123.88C182.398 124.52 183.63 125.432 184.558 126.616C185.518 127.8 185.998 129.24 185.998 130.936C185.998 132.536 185.63 133.96 184.894 135.208C184.158 136.456 183.15 137.464 181.87 138.232C180.59 138.968 179.134 139.384 177.502 139.48L179.326 136.648V142.12L177.358 139.336C179.342 139.4 181.086 139.784 182.59 140.488C184.126 141.16 185.326 142.12 186.19 143.368C187.054 144.616 187.486 146.168 187.486 148.024C187.486 150.04 186.99 151.736 185.998 153.112C185.006 154.488 183.694 155.528 182.062 156.232C180.43 156.904 178.622 157.24 176.638 157.24C175.454 157.24 174.11 157.192 172.606 157.096C171.102 157.032 169.742 157 168.526 157C168.078 157 167.422 157.016 166.558 157.048C165.726 157.08 164.846 157.112 163.918 157.144C163.022 157.176 162.238 157.208 161.566 157.24ZM172.03 154.936L170.254 153.304C170.958 153.4 171.694 153.496 172.462 153.592C173.262 153.656 174.11 153.688 175.006 153.688C176.798 153.688 178.238 153.144 179.326 152.056C180.446 150.968 181.006 149.432 181.006 147.448C181.006 145.976 180.686 144.792 180.046 143.896C179.438 143 178.606 142.36 177.55 141.976C176.526 141.56 175.374 141.352 174.094 141.352H173.614L173.95 137.656H174.238C175.998 137.656 177.374 137.144 178.366 136.12C179.39 135.064 179.902 133.624 179.902 131.8C179.902 130.168 179.454 128.856 178.558 127.864C177.662 126.872 176.366 126.376 174.67 126.376C173.934 126.376 173.166 126.376 172.366 126.376C171.598 126.376 170.862 126.392 170.158 126.424L171.934 125.272C171.934 125.496 171.902 125.992 171.838 126.76C171.774 127.528 171.694 128.392 171.598 129.352C171.534 130.28 171.502 131.16 171.502 131.992V148.168C171.502 148.904 171.534 149.752 171.598 150.712C171.662 151.64 171.742 152.504 171.838 153.304C171.934 154.104 171.998 154.648 172.03 154.936Z" fill="#00D1FF"/>
<circle cx="106.5" cy="87.5" r="11.5" fill="black"/>
<path d="M112.6 86.7256C113.267 87.1095 113.268 88.0717 112.602 88.4577L104.36 93.2338C103.694 93.6197 102.86 93.1399 102.859 92.3701L102.844 82.8438C102.842 82.074 103.675 81.5916 104.342 81.9754L112.6 86.7256Z" fill="white"/>
<defs>
<filter id="filter0_d_2_9" x="0" y="43" width="212" height="89" filterUnits="userSpaceOnUse" color-interpolation-filters="sRGB">
<feFlood flood-opacity="0" result="BackgroundImageFix"/>
<feColorMatrix in="SourceAlpha" type="matrix" values="0 0 0 0 0 0 0 0 0 0 0 0 0 0 0 0 0 0 127 0" result="hardAlpha"/>
<feMorphology radius="10" operator="dilate" in="SourceAlpha" result="effect1_dropShadow_2_9"/>
<feOffset/>
<feGaussianBlur stdDeviation="5"/>
<feComposite in2="hardAlpha" operator="out"/>
<feColorMatrix type="matrix" values="0 0 0 0 0 0 0 0 0 1 0 0 0 0 1 0 0 0 0.25 0"/>
<feBlend mode="normal" in2="BackgroundImageFix" result="effect1_dropShadow_2_9"/>
<feBlend mode="normal" in="SourceGraphic" in2="effect1_dropShadow_2_9" result="shape"/>
</filter>
</defs>
</svg>
